<mxfile host="65bd71144e" modified="2020-11-04T13:45:39.611Z" agent="5.0 (Macintosh; Intel Mac OS X 10_15_7) AppleWebKit/537.36 (KHTML, like Gecko) Code/1.50.1 Chrome/83.0.4103.122 Electron/9.2.1 Safari/537.36" etag="Q9n6OQQGLidjIvEoWg6G" version="13.6.5">
    <diagram id="abHzWG8QDDodxJpESRwe" name="Page-1">
        <mxGraphModel dx="766" dy="695" grid="1" gridSize="10" guides="1" tooltips="1" connect="1" arrows="1" fold="1" page="1" pageScale="1" pageWidth="850" pageHeight="1100" math="0" shadow="0">
            <root>
                <mxCell id="0"/>
                <mxCell id="1" parent="0"/>
                <mxCell id="V9arckDxi3864Fd6Gpp7-1" style="edgeStyle=orthogonalEdgeStyle;rounded=0;orthogonalLoop=1;jettySize=auto;html=1;exitX=0;exitY=0.5;exitDx=0;exitDy=0;endArrow=block;endFill=0;" parent="1" source="oX2Hp4mxsuDAin2quWFJ-1" target="oX2Hp4mxsuDAin2quWFJ-2" edge="1">
                    <mxGeometry relative="1" as="geometry">
                        <Array as="points">
                            <mxPoint x="230" y="215"/>
                        </Array>
                    </mxGeometry>
                </mxCell>
                <mxCell id="V9arckDxi3864Fd6Gpp7-2" style="edgeStyle=orthogonalEdgeStyle;rounded=0;orthogonalLoop=1;jettySize=auto;html=1;exitX=1;exitY=0.5;exitDx=0;exitDy=0;endArrow=block;endFill=0;" parent="1" source="oX2Hp4mxsuDAin2quWFJ-1" target="oX2Hp4mxsuDAin2quWFJ-5" edge="1">
                    <mxGeometry relative="1" as="geometry">
                        <Array as="points">
                            <mxPoint x="500" y="215"/>
                        </Array>
                    </mxGeometry>
                </mxCell>
                <mxCell id="oX2Hp4mxsuDAin2quWFJ-1" value="&lt;span style=&quot;font-family: &amp;#34;helvetica neue&amp;#34; , &amp;#34;hiragino sans gb&amp;#34; , &amp;#34;microsoft yahei&amp;#34; , &amp;#34;wenquanyi micro hei&amp;#34; , sans-serif&quot;&gt;&lt;/span&gt;&lt;span style=&quot;font-family: &amp;#34;helvetica neue&amp;#34; , &amp;#34;hiragino sans gb&amp;#34; , &amp;#34;microsoft yahei&amp;#34; , &amp;#34;wenquanyi micro hei&amp;#34; , sans-serif&quot;&gt;&lt;/span&gt;&lt;span style=&quot;font-family: &amp;#34;helvetica neue&amp;#34; , &amp;#34;hiragino sans gb&amp;#34; , &amp;#34;microsoft yahei&amp;#34; , &amp;#34;wenquanyi micro hei&amp;#34; , sans-serif&quot;&gt;&lt;/span&gt;&lt;span style=&quot;font-family: &amp;#34;helvetica neue&amp;#34; , &amp;#34;hiragino sans gb&amp;#34; , &amp;#34;microsoft yahei&amp;#34; , &amp;#34;wenquanyi micro hei&amp;#34; , sans-serif&quot;&gt;&lt;/span&gt;&lt;a id=&quot;file-download-image&quot; style=&quot;border: 0px ; vertical-align: baseline ; margin: 0px ; padding: 0px ; color: rgb(57 , 141 , 238) ; outline: none ; font-family: &amp;#34;helvetica neue&amp;#34; , &amp;#34;hiragino sans gb&amp;#34; , &amp;#34;microsoft yahei&amp;#34; , &amp;#34;wenquanyi micro hei&amp;#34; , sans-serif ; cursor: default&quot;&gt;&lt;/a&gt;&lt;input type=&quot;file&quot; style=&quot;padding: 5px 10px ; margin: 0px ; border-width: 1px ; border-style: solid ; border-color: rgb(224 , 225 , 229) ; outline: none ; border-radius: 2px ; line-height: 22px ; box-shadow: none ; transition: 0.2s linear 0s , 0.2s linear 0s ; font-size: 13px ; position: absolute ; top: -1000px ; left: -1000px&quot;&gt;&lt;input type=&quot;file&quot; style=&quot;padding: 5px 10px ; margin: 0px ; border-width: 1px ; border-style: solid ; border-color: rgb(224 , 225 , 229) ; outline: none ; border-radius: 2px ; line-height: 22px ; box-shadow: none ; transition: 0.2s linear 0s , 0.2s linear 0s ; font-size: 13px ; position: absolute ; top: -1000px ; left: -1000px&quot;&gt;&lt;span style=&quot;font-family: &amp;#34;helvetica neue&amp;#34; , &amp;#34;hiragino sans gb&amp;#34; , &amp;#34;microsoft yahei&amp;#34; , &amp;#34;wenquanyi micro hei&amp;#34; , sans-serif&quot;&gt;&lt;/span&gt;&lt;span style=&quot;font-family: &amp;#34;helvetica neue&amp;#34; , &amp;#34;hiragino sans gb&amp;#34; , &amp;#34;microsoft yahei&amp;#34; , &amp;#34;wenquanyi micro hei&amp;#34; , sans-serif&quot;&gt;&lt;/span&gt;&lt;span style=&quot;font-family: &amp;#34;helvetica neue&amp;#34; , &amp;#34;hiragino sans gb&amp;#34; , &amp;#34;microsoft yahei&amp;#34; , &amp;#34;wenquanyi micro hei&amp;#34; , sans-serif&quot;&gt;&lt;/span&gt;&lt;span style=&quot;font-family: &amp;#34;helvetica neue&amp;#34; , &amp;#34;hiragino sans gb&amp;#34; , &amp;#34;microsoft yahei&amp;#34; , &amp;#34;wenquanyi micro hei&amp;#34; , sans-serif&quot;&gt;&lt;/span&gt;&lt;span style=&quot;font-family: &amp;#34;helvetica neue&amp;#34; , &amp;#34;hiragino sans gb&amp;#34; , &amp;#34;microsoft yahei&amp;#34; , &amp;#34;wenquanyi micro hei&amp;#34; , sans-serif&quot;&gt;&lt;/span&gt;&lt;span style=&quot;font-family: &amp;#34;helvetica neue&amp;#34; , &amp;#34;hiragino sans gb&amp;#34; , &amp;#34;microsoft yahei&amp;#34; , &amp;#34;wenquanyi micro hei&amp;#34; , sans-serif&quot;&gt;&lt;/span&gt;&lt;iframe id=&quot;hidden-editor&quot; style=&quot;border-width: 0px ; margin: 0px ; padding: 0px ; position: absolute ; height: 1px ; width: 1px ; left: -100px ; top: -100px ; font-family: &amp;#34;helvetica neue&amp;#34; , &amp;#34;hiragino sans gb&amp;#34; , &amp;#34;microsoft yahei&amp;#34; , &amp;#34;wenquanyi micro hei&amp;#34; , sans-serif ; cursor: default&quot;&gt;&lt;/iframe&gt;&lt;div style=&quot;border: 0px ; margin: 0px ; padding: 0px ; font-family: &amp;#34;helvetica neue&amp;#34; , &amp;#34;hiragino sans gb&amp;#34; , &amp;#34;microsoft yahei&amp;#34; , &amp;#34;wenquanyi micro hei&amp;#34; , sans-serif ; top: 0px ; left: 0px ; visibility: hidden ; position: absolute ; width: 1px ; height: 1px ; cursor: default&quot;&gt;&lt;iframe style=&quot;border-width: 0px ; margin: 0px ; padding: 0px ; height: 0px ; width: 0px ; cursor: default&quot;&gt;&lt;/iframe&gt;&lt;/div&gt;&lt;span style=&quot;font-family: &amp;#34;helvetica neue&amp;#34; , &amp;#34;hiragino sans gb&amp;#34; , &amp;#34;microsoft yahei&amp;#34; , &amp;#34;wenquanyi micro hei&amp;#34; , sans-serif&quot;&gt;&lt;/span&gt;&lt;span style=&quot;font-family: &amp;#34;helvetica neue&amp;#34; , &amp;#34;hiragino sans gb&amp;#34; , &amp;#34;microsoft yahei&amp;#34; , &amp;#34;wenquanyi micro hei&amp;#34; , sans-serif&quot;&gt;&lt;/span&gt;&lt;span style=&quot;font-family: &amp;#34;helvetica neue&amp;#34; , &amp;#34;hiragino sans gb&amp;#34; , &amp;#34;microsoft yahei&amp;#34; , &amp;#34;wenquanyi micro hei&amp;#34; , sans-serif&quot;&gt;&lt;/span&gt;&lt;span style=&quot;font-family: &amp;#34;helvetica neue&amp;#34; , &amp;#34;hiragino sans gb&amp;#34; , &amp;#34;microsoft yahei&amp;#34; , &amp;#34;wenquanyi micro hei&amp;#34; , sans-serif&quot;&gt;&lt;/span&gt;&lt;a id=&quot;file-download-image&quot; style=&quot;border: 0px ; vertical-align: baseline ; margin: 0px ; padding: 0px ; color: rgb(57 , 141 , 238) ; outline: none ; font-family: &amp;#34;helvetica neue&amp;#34; , &amp;#34;hiragino sans gb&amp;#34; , &amp;#34;microsoft yahei&amp;#34; , &amp;#34;wenquanyi micro hei&amp;#34; , sans-serif ; cursor: default&quot;&gt;&lt;/a&gt;&lt;input type=&quot;file&quot; style=&quot;padding: 5px 10px ; margin: 0px ; border-width: 1px ; border-style: solid ; border-color: rgb(224 , 225 , 229) ; outline: none ; border-radius: 2px ; line-height: 22px ; box-shadow: none ; transition: 0.2s linear 0s , 0.2s linear 0s ; font-size: 13px ; position: absolute ; top: -1000px ; left: -1000px&quot;&gt;&lt;input type=&quot;file&quot; style=&quot;padding: 5px 10px ; margin: 0px ; border-width: 1px ; border-style: solid ; border-color: rgb(224 , 225 , 229) ; outline: none ; border-radius: 2px ; line-height: 22px ; box-shadow: none ; transition: 0.2s linear 0s , 0.2s linear 0s ; font-size: 13px ; position: absolute ; top: -1000px ; left: -1000px&quot;&gt;&lt;span style=&quot;font-family: &amp;#34;helvetica neue&amp;#34; , &amp;#34;hiragino sans gb&amp;#34; , &amp;#34;microsoft yahei&amp;#34; , &amp;#34;wenquanyi micro hei&amp;#34; , sans-serif&quot;&gt;&lt;/span&gt;&lt;span style=&quot;font-family: &amp;#34;helvetica neue&amp;#34; , &amp;#34;hiragino sans gb&amp;#34; , &amp;#34;microsoft yahei&amp;#34; , &amp;#34;wenquanyi micro hei&amp;#34; , sans-serif&quot;&gt;&lt;/span&gt;&lt;span style=&quot;font-family: &amp;#34;helvetica neue&amp;#34; , &amp;#34;hiragino sans gb&amp;#34; , &amp;#34;microsoft yahei&amp;#34; , &amp;#34;wenquanyi micro hei&amp;#34; , sans-serif&quot;&gt;&lt;/span&gt;&lt;span style=&quot;font-family: &amp;#34;helvetica neue&amp;#34; , &amp;#34;hiragino sans gb&amp;#34; , &amp;#34;microsoft yahei&amp;#34; , &amp;#34;wenquanyi micro hei&amp;#34; , sans-serif&quot;&gt;&lt;/span&gt;&lt;span style=&quot;font-family: &amp;#34;helvetica neue&amp;#34; , &amp;#34;hiragino sans gb&amp;#34; , &amp;#34;microsoft yahei&amp;#34; , &amp;#34;wenquanyi micro hei&amp;#34; , sans-serif&quot;&gt;&lt;/span&gt;&lt;span style=&quot;font-family: &amp;#34;helvetica neue&amp;#34; , &amp;#34;hiragino sans gb&amp;#34; , &amp;#34;microsoft yahei&amp;#34; , &amp;#34;wenquanyi micro hei&amp;#34; , sans-serif&quot;&gt;&lt;/span&gt;&lt;iframe id=&quot;hidden-editor&quot; style=&quot;border-width: 0px ; margin: 0px ; padding: 0px ; position: absolute ; height: 1px ; width: 1px ; left: -100px ; top: -100px ; font-family: &amp;#34;helvetica neue&amp;#34; , &amp;#34;hiragino sans gb&amp;#34; , &amp;#34;microsoft yahei&amp;#34; , &amp;#34;wenquanyi micro hei&amp;#34; , sans-serif ; cursor: default&quot;&gt;&lt;/iframe&gt;&lt;div style=&quot;border: 0px ; margin: 0px ; padding: 0px ; font-family: &amp;#34;helvetica neue&amp;#34; , &amp;#34;hiragino sans gb&amp;#34; , &amp;#34;microsoft yahei&amp;#34; , &amp;#34;wenquanyi micro hei&amp;#34; , sans-serif ; top: 0px ; left: 0px ; visibility: hidden ; position: absolute ; width: 1px ; height: 1px ; cursor: default&quot;&gt;&lt;iframe style=&quot;border-width: 0px ; margin: 0px ; padding: 0px ; height: 0px ; width: 0px ; cursor: default&quot;&gt;&lt;/iframe&gt;&lt;/div&gt;&lt;div&gt;&lt;span style=&quot;text-align: center&quot;&gt;&lt;font face=&quot;Helvetica Neue, Hiragino Sans GB, Microsoft Yahei, WenQuanYi Micro Hei, sans-serif&quot; style=&quot;font-size: 12px&quot;&gt;Http2ConnectionHandle&lt;/font&gt;&lt;/span&gt;&lt;span style=&quot;font-family: &amp;#34;helvetica&amp;#34; ; text-align: center&quot;&gt;r&lt;/span&gt;&lt;/div&gt;" style="rounded=1;whiteSpace=wrap;html=1;" parent="1" vertex="1">
                    <mxGeometry x="280" y="180" width="170" height="70" as="geometry"/>
                </mxCell>
                <mxCell id="V9arckDxi3864Fd6Gpp7-4" style="edgeStyle=orthogonalEdgeStyle;rounded=0;orthogonalLoop=1;jettySize=auto;html=1;exitX=0.5;exitY=1;exitDx=0;exitDy=0;entryX=0.5;entryY=0;entryDx=0;entryDy=0;endArrow=block;endFill=0;" parent="1" source="oX2Hp4mxsuDAin2quWFJ-2" target="oX2Hp4mxsuDAin2quWFJ-3" edge="1">
                    <mxGeometry relative="1" as="geometry"/>
                </mxCell>
                <mxCell id="V9arckDxi3864Fd6Gpp7-9" style="edgeStyle=orthogonalEdgeStyle;rounded=0;orthogonalLoop=1;jettySize=auto;html=1;exitX=0;exitY=0.5;exitDx=0;exitDy=0;entryX=0;entryY=0.5;entryDx=0;entryDy=0;endArrow=block;endFill=0;" parent="1" source="oX2Hp4mxsuDAin2quWFJ-2" target="oX2Hp4mxsuDAin2quWFJ-8" edge="1">
                    <mxGeometry relative="1" as="geometry"/>
                </mxCell>
                <mxCell id="oX2Hp4mxsuDAin2quWFJ-2" value="Http2ConnectionDecoder" style="rounded=1;whiteSpace=wrap;html=1;" parent="1" vertex="1">
                    <mxGeometry x="160" y="290" width="140" height="60" as="geometry"/>
                </mxCell>
                <mxCell id="V9arckDxi3864Fd6Gpp7-6" style="edgeStyle=orthogonalEdgeStyle;rounded=0;orthogonalLoop=1;jettySize=auto;html=1;exitX=0.5;exitY=1;exitDx=0;exitDy=0;endArrow=block;endFill=0;" parent="1" source="oX2Hp4mxsuDAin2quWFJ-3" target="oX2Hp4mxsuDAin2quWFJ-4" edge="1">
                    <mxGeometry relative="1" as="geometry"/>
                </mxCell>
                <mxCell id="oX2Hp4mxsuDAin2quWFJ-3" value="Http2FrameReader" style="rounded=1;whiteSpace=wrap;html=1;" parent="1" vertex="1">
                    <mxGeometry x="170" y="380" width="120" height="60" as="geometry"/>
                </mxCell>
                <mxCell id="oX2Hp4mxsuDAin2quWFJ-4" value="Http2FrameListener" style="rounded=1;whiteSpace=wrap;html=1;fillColor=#60a917;strokeColor=#2D7600;fontColor=#ffffff;" parent="1" vertex="1">
                    <mxGeometry x="170" y="470" width="120" height="60" as="geometry"/>
                </mxCell>
                <mxCell id="V9arckDxi3864Fd6Gpp7-5" style="edgeStyle=orthogonalEdgeStyle;rounded=0;orthogonalLoop=1;jettySize=auto;html=1;exitX=0.5;exitY=1;exitDx=0;exitDy=0;entryX=0.5;entryY=0;entryDx=0;entryDy=0;endArrow=block;endFill=0;" parent="1" source="oX2Hp4mxsuDAin2quWFJ-5" target="oX2Hp4mxsuDAin2quWFJ-6" edge="1">
                    <mxGeometry relative="1" as="geometry"/>
                </mxCell>
                <mxCell id="V9arckDxi3864Fd6Gpp7-8" style="edgeStyle=orthogonalEdgeStyle;rounded=0;orthogonalLoop=1;jettySize=auto;html=1;exitX=1;exitY=0.5;exitDx=0;exitDy=0;entryX=1;entryY=0.5;entryDx=0;entryDy=0;endArrow=block;endFill=0;" parent="1" source="oX2Hp4mxsuDAin2quWFJ-5" target="oX2Hp4mxsuDAin2quWFJ-8" edge="1">
                    <mxGeometry relative="1" as="geometry"/>
                </mxCell>
                <mxCell id="oX2Hp4mxsuDAin2quWFJ-5" value="Http2ConnectionEncoder" style="rounded=1;whiteSpace=wrap;html=1;" parent="1" vertex="1">
                    <mxGeometry x="430" y="290" width="140" height="60" as="geometry"/>
                </mxCell>
                <mxCell id="oX2Hp4mxsuDAin2quWFJ-6" value="Http2FrameWriter" style="rounded=1;whiteSpace=wrap;html=1;fillColor=#60a917;strokeColor=#2D7600;fontColor=#ffffff;" parent="1" vertex="1">
                    <mxGeometry x="440" y="380" width="120" height="60" as="geometry"/>
                </mxCell>
                <mxCell id="oX2Hp4mxsuDAin2quWFJ-8" value="Http2Connection/Endpoint" style="rounded=1;whiteSpace=wrap;html=1;" parent="1" vertex="1">
                    <mxGeometry x="165" y="560" width="400" height="60" as="geometry"/>
                </mxCell>
                <mxCell id="V9arckDxi3864Fd6Gpp7-10" style="edgeStyle=orthogonalEdgeStyle;rounded=0;orthogonalLoop=1;jettySize=auto;html=1;exitX=0.5;exitY=1;exitDx=0;exitDy=0;entryX=0.5;entryY=0;entryDx=0;entryDy=0;endArrow=diamond;endFill=1;" parent="1" source="V9arckDxi3864Fd6Gpp7-3" target="oX2Hp4mxsuDAin2quWFJ-1" edge="1">
                    <mxGeometry relative="1" as="geometry"/>
                </mxCell>
                <mxCell id="V9arckDxi3864Fd6Gpp7-3" value="&lt;span style=&quot;font-family: &amp;#34;helvetica neue&amp;#34; , &amp;#34;hiragino sans gb&amp;#34; , &amp;#34;microsoft yahei&amp;#34; , &amp;#34;wenquanyi micro hei&amp;#34; , sans-serif&quot;&gt;&lt;/span&gt;&lt;span style=&quot;font-family: &amp;#34;helvetica neue&amp;#34; , &amp;#34;hiragino sans gb&amp;#34; , &amp;#34;microsoft yahei&amp;#34; , &amp;#34;wenquanyi micro hei&amp;#34; , sans-serif&quot;&gt;&lt;/span&gt;&lt;span style=&quot;font-family: &amp;#34;helvetica neue&amp;#34; , &amp;#34;hiragino sans gb&amp;#34; , &amp;#34;microsoft yahei&amp;#34; , &amp;#34;wenquanyi micro hei&amp;#34; , sans-serif&quot;&gt;&lt;/span&gt;&lt;span style=&quot;font-family: &amp;#34;helvetica neue&amp;#34; , &amp;#34;hiragino sans gb&amp;#34; , &amp;#34;microsoft yahei&amp;#34; , &amp;#34;wenquanyi micro hei&amp;#34; , sans-serif&quot;&gt;&lt;/span&gt;&lt;a id=&quot;file-download-image&quot; style=&quot;border: 0px ; vertical-align: baseline ; margin: 0px ; padding: 0px ; color: rgb(57 , 141 , 238) ; outline: none ; font-family: &amp;#34;helvetica neue&amp;#34; , &amp;#34;hiragino sans gb&amp;#34; , &amp;#34;microsoft yahei&amp;#34; , &amp;#34;wenquanyi micro hei&amp;#34; , sans-serif ; cursor: default&quot;&gt;&lt;/a&gt;&lt;input type=&quot;file&quot; style=&quot;padding: 5px 10px ; margin: 0px ; border-width: 1px ; border-style: solid ; border-color: rgb(224 , 225 , 229) ; outline: none ; border-radius: 2px ; line-height: 22px ; box-shadow: none ; transition: 0.2s linear 0s , 0.2s linear 0s ; font-size: 13px ; position: absolute ; top: -1000px ; left: -1000px&quot;&gt;&lt;input type=&quot;file&quot; style=&quot;padding: 5px 10px ; margin: 0px ; border-width: 1px ; border-style: solid ; border-color: rgb(224 , 225 , 229) ; outline: none ; border-radius: 2px ; line-height: 22px ; box-shadow: none ; transition: 0.2s linear 0s , 0.2s linear 0s ; font-size: 13px ; position: absolute ; top: -1000px ; left: -1000px&quot;&gt;&lt;span style=&quot;font-family: &amp;#34;helvetica neue&amp;#34; , &amp;#34;hiragino sans gb&amp;#34; , &amp;#34;microsoft yahei&amp;#34; , &amp;#34;wenquanyi micro hei&amp;#34; , sans-serif&quot;&gt;&lt;/span&gt;&lt;span style=&quot;font-family: &amp;#34;helvetica neue&amp;#34; , &amp;#34;hiragino sans gb&amp;#34; , &amp;#34;microsoft yahei&amp;#34; , &amp;#34;wenquanyi micro hei&amp;#34; , sans-serif&quot;&gt;&lt;/span&gt;&lt;span style=&quot;font-family: &amp;#34;helvetica neue&amp;#34; , &amp;#34;hiragino sans gb&amp;#34; , &amp;#34;microsoft yahei&amp;#34; , &amp;#34;wenquanyi micro hei&amp;#34; , sans-serif&quot;&gt;&lt;/span&gt;&lt;span style=&quot;font-family: &amp;#34;helvetica neue&amp;#34; , &amp;#34;hiragino sans gb&amp;#34; , &amp;#34;microsoft yahei&amp;#34; , &amp;#34;wenquanyi micro hei&amp;#34; , sans-serif&quot;&gt;&lt;/span&gt;&lt;span style=&quot;font-family: &amp;#34;helvetica neue&amp;#34; , &amp;#34;hiragino sans gb&amp;#34; , &amp;#34;microsoft yahei&amp;#34; , &amp;#34;wenquanyi micro hei&amp;#34; , sans-serif&quot;&gt;&lt;/span&gt;&lt;span style=&quot;font-family: &amp;#34;helvetica neue&amp;#34; , &amp;#34;hiragino sans gb&amp;#34; , &amp;#34;microsoft yahei&amp;#34; , &amp;#34;wenquanyi micro hei&amp;#34; , sans-serif&quot;&gt;&lt;/span&gt;&lt;iframe id=&quot;hidden-editor&quot; style=&quot;border-width: 0px ; margin: 0px ; padding: 0px ; position: absolute ; height: 1px ; width: 1px ; left: -100px ; top: -100px ; font-family: &amp;#34;helvetica neue&amp;#34; , &amp;#34;hiragino sans gb&amp;#34; , &amp;#34;microsoft yahei&amp;#34; , &amp;#34;wenquanyi micro hei&amp;#34; , sans-serif ; cursor: default&quot;&gt;&lt;/iframe&gt;&lt;div style=&quot;border: 0px ; margin: 0px ; padding: 0px ; font-family: &amp;#34;helvetica neue&amp;#34; , &amp;#34;hiragino sans gb&amp;#34; , &amp;#34;microsoft yahei&amp;#34; , &amp;#34;wenquanyi micro hei&amp;#34; , sans-serif ; top: 0px ; left: 0px ; visibility: hidden ; position: absolute ; width: 1px ; height: 1px ; cursor: default&quot;&gt;&lt;iframe style=&quot;border-width: 0px ; margin: 0px ; padding: 0px ; height: 0px ; width: 0px ; cursor: default&quot;&gt;&lt;/iframe&gt;&lt;/div&gt;&lt;span style=&quot;font-family: &amp;#34;helvetica neue&amp;#34; , &amp;#34;hiragino sans gb&amp;#34; , &amp;#34;microsoft yahei&amp;#34; , &amp;#34;wenquanyi micro hei&amp;#34; , sans-serif&quot;&gt;&lt;/span&gt;&lt;span style=&quot;font-family: &amp;#34;helvetica neue&amp;#34; , &amp;#34;hiragino sans gb&amp;#34; , &amp;#34;microsoft yahei&amp;#34; , &amp;#34;wenquanyi micro hei&amp;#34; , sans-serif&quot;&gt;&lt;/span&gt;&lt;span style=&quot;font-family: &amp;#34;helvetica neue&amp;#34; , &amp;#34;hiragino sans gb&amp;#34; , &amp;#34;microsoft yahei&amp;#34; , &amp;#34;wenquanyi micro hei&amp;#34; , sans-serif&quot;&gt;&lt;/span&gt;&lt;span style=&quot;font-family: &amp;#34;helvetica neue&amp;#34; , &amp;#34;hiragino sans gb&amp;#34; , &amp;#34;microsoft yahei&amp;#34; , &amp;#34;wenquanyi micro hei&amp;#34; , sans-serif&quot;&gt;&lt;/span&gt;&lt;a id=&quot;file-download-image&quot; style=&quot;border: 0px ; vertical-align: baseline ; margin: 0px ; padding: 0px ; color: rgb(57 , 141 , 238) ; outline: none ; font-family: &amp;#34;helvetica neue&amp;#34; , &amp;#34;hiragino sans gb&amp;#34; , &amp;#34;microsoft yahei&amp;#34; , &amp;#34;wenquanyi micro hei&amp;#34; , sans-serif ; cursor: default&quot;&gt;&lt;/a&gt;&lt;input type=&quot;file&quot; style=&quot;padding: 5px 10px ; margin: 0px ; border-width: 1px ; border-style: solid ; border-color: rgb(224 , 225 , 229) ; outline: none ; border-radius: 2px ; line-height: 22px ; box-shadow: none ; transition: 0.2s linear 0s , 0.2s linear 0s ; font-size: 13px ; position: absolute ; top: -1000px ; left: -1000px&quot;&gt;&lt;input type=&quot;file&quot; style=&quot;padding: 5px 10px ; margin: 0px ; border-width: 1px ; border-style: solid ; border-color: rgb(224 , 225 , 229) ; outline: none ; border-radius: 2px ; line-height: 22px ; box-shadow: none ; transition: 0.2s linear 0s , 0.2s linear 0s ; font-size: 13px ; position: absolute ; top: -1000px ; left: -1000px&quot;&gt;&lt;span style=&quot;font-family: &amp;#34;helvetica neue&amp;#34; , &amp;#34;hiragino sans gb&amp;#34; , &amp;#34;microsoft yahei&amp;#34; , &amp;#34;wenquanyi micro hei&amp;#34; , sans-serif&quot;&gt;&lt;/span&gt;&lt;span style=&quot;font-family: &amp;#34;helvetica neue&amp;#34; , &amp;#34;hiragino sans gb&amp;#34; , &amp;#34;microsoft yahei&amp;#34; , &amp;#34;wenquanyi micro hei&amp;#34; , sans-serif&quot;&gt;&lt;/span&gt;&lt;span style=&quot;font-family: &amp;#34;helvetica neue&amp;#34; , &amp;#34;hiragino sans gb&amp;#34; , &amp;#34;microsoft yahei&amp;#34; , &amp;#34;wenquanyi micro hei&amp;#34; , sans-serif&quot;&gt;&lt;/span&gt;&lt;span style=&quot;font-family: &amp;#34;helvetica neue&amp;#34; , &amp;#34;hiragino sans gb&amp;#34; , &amp;#34;microsoft yahei&amp;#34; , &amp;#34;wenquanyi micro hei&amp;#34; , sans-serif&quot;&gt;&lt;/span&gt;&lt;span style=&quot;font-family: &amp;#34;helvetica neue&amp;#34; , &amp;#34;hiragino sans gb&amp;#34; , &amp;#34;microsoft yahei&amp;#34; , &amp;#34;wenquanyi micro hei&amp;#34; , sans-serif&quot;&gt;&lt;/span&gt;&lt;span style=&quot;font-family: &amp;#34;helvetica neue&amp;#34; , &amp;#34;hiragino sans gb&amp;#34; , &amp;#34;microsoft yahei&amp;#34; , &amp;#34;wenquanyi micro hei&amp;#34; , sans-serif&quot;&gt;&lt;/span&gt;&lt;iframe id=&quot;hidden-editor&quot; style=&quot;border-width: 0px ; margin: 0px ; padding: 0px ; position: absolute ; height: 1px ; width: 1px ; left: -100px ; top: -100px ; font-family: &amp;#34;helvetica neue&amp;#34; , &amp;#34;hiragino sans gb&amp;#34; , &amp;#34;microsoft yahei&amp;#34; , &amp;#34;wenquanyi micro hei&amp;#34; , sans-serif ; cursor: default&quot;&gt;&lt;/iframe&gt;&lt;div style=&quot;border: 0px ; margin: 0px ; padding: 0px ; font-family: &amp;#34;helvetica neue&amp;#34; , &amp;#34;hiragino sans gb&amp;#34; , &amp;#34;microsoft yahei&amp;#34; , &amp;#34;wenquanyi micro hei&amp;#34; , sans-serif ; top: 0px ; left: 0px ; visibility: hidden ; position: absolute ; width: 1px ; height: 1px ; cursor: default&quot;&gt;&lt;iframe style=&quot;border-width: 0px ; margin: 0px ; padding: 0px ; height: 0px ; width: 0px ; cursor: default&quot;&gt;&lt;/iframe&gt;&lt;/div&gt;&lt;div&gt;&lt;font face=&quot;Helvetica Neue, Hiragino Sans GB, Microsoft Yahei, WenQuanYi Micro Hei, sans-serif&quot;&gt;Http2FrameCodec&lt;/font&gt;&lt;br&gt;&lt;/div&gt;" style="rounded=1;whiteSpace=wrap;html=1;fillColor=#60a917;strokeColor=#2D7600;fontColor=#ffffff;" parent="1" vertex="1">
                    <mxGeometry x="280" y="80" width="170" height="70" as="geometry"/>
                </mxCell>
            </root>
        </mxGraphModel>
    </diagram>
</mxfile>